# xmcd
#
# Track frame offsets: 
#        150
#        28017
#        57799
#        83578
#        107152
#        128833
#        146292
#        170057
#        186871
#        223078
#        258715
#
# Disc length: 3909 seconds
#
# Revision: 0
# Processed by: cddbd v1.5.2PL0 Copyright (c) Steve Scherf et al.
# Submitted via: ExactAudioCopy v1.0b3
#
DISCID=9d0f430b
DTITLE=麗蘭 - 磔磔2014盤 GOOD TMES ROLL
DYEAR=2015
DGENRE=Rock
TTITLE0=Good Times Roll
TTITLE1=真冬の熱帯夜
TTITLE2=Happy Song
TTITLE3=スペードのクイーン
TTITLE4=SONG for J.J.cale
TTITLE5=Go Johnny Go
TTITLE6=SOSが鳴ってる
TTITLE7=水たまり
TTITLE8=Yes We Can 2014
TTITLE9=マニフェスト
TTITLE10=歩く
EXTD=
EXTT0=
EXTT1=
EXTT2=
EXTT3=
EXTT4=
EXTT5=
EXTT6=
EXTT7=
EXTT8=
EXTT9=
EXTT10=
PLAYORDER=
